<?xml version="1.0" encoding="utf-8"?>
<!-- Generator: Adobe Illustrator 22.0.0, SVG Export Plug-In . SVG Version: 6.00 Build 0)  -->
<svg version="1.1" xmlns="http://www.w3.org/2000/svg" xmlns:xlink="http://www.w3.org/1999/xlink" x="0px" y="0px"
	 viewBox="0 0 328.7 282.7" enable-background="new 0 0 328.7 282.7" xml:space="preserve">
<g id="Background_Complete">
</g>
<g id="Background_Simple" display="none">
	<g display="inline">
		<path fill="#407BFF" d="M148.5,29.1c48.1,5.4,69.2-36.3,116.9-30.9c42.5,4.9,71.9,35.2,61.9,76c-8.8,36.2-50.8,47.6-65.7,81.6
			c-15.8,36-28.1,74.8-75.9,87.3C91.8,267.7,46.2,152.2,39.8,85.9C37.4,60.4,33.1-0.4,66.3-8.3C99.8-16.2,119,25.8,148.5,29.1z"/>
		<path opacity="0.9" fill="#FFFFFF" d="M148.5,29.1c48.1,5.4,69.2-36.3,116.9-30.9c42.5,4.9,71.9,35.2,61.9,76
			c-8.8,36.2-50.8,47.6-65.7,81.6c-15.8,36-28.1,74.8-75.9,87.3C91.8,267.7,46.2,152.2,39.8,85.9C37.4,60.4,33.1-0.4,66.3-8.3
			C99.8-16.2,119,25.8,148.5,29.1z"/>
	</g>
</g>
<g id="Shadow_1_">
</g>
<g id="Window_No_Data">
</g>
<g id="Character_1_">
	<g>
		<g>
			<rect x="3" y="238.4" fill="#EBEBEB" width="323.5" height="0.2"/>
			<rect x="270.4" y="249.2" fill="#EBEBEB" width="22.3" height="0.2"/>
			<rect x="206.9" y="251.1" fill="#EBEBEB" width="5.9" height="0.2"/>
			<rect x="256.8" y="243" fill="#EBEBEB" width="12.9" height="0.2"/>
			<rect x="24.9" y="244.1" fill="#EBEBEB" width="29.1" height="0.2"/>
			<rect x="60" y="244.1" fill="#EBEBEB" width="4.3" height="0.2"/>
			<rect x="78.1" y="247" fill="#EBEBEB" width="63.1" height="0.2"/>
			<path fill="#EBEBEB" d="M149.2,208.3H19.1c-2.1,0-3.8-1.7-3.8-3.8V21.5c0-2.1,1.7-3.8,3.8-3.8h130.2c2.1,0,3.8,1.7,3.8,3.8v182.9
				C153.1,206.6,151.4,208.3,149.2,208.3z M19.1,17.9c-2,0-3.7,1.7-3.7,3.7v182.9c0,2,1.7,3.7,3.7,3.7h130.2c2,0,3.7-1.7,3.7-3.7
				V21.5c0-2-1.7-3.7-3.7-3.7H19.1z"/>
			<path fill="#EBEBEB" d="M295,208.3H164.9c-2.1,0-3.8-1.7-3.8-3.8V21.5c0-2.1,1.7-3.8,3.8-3.8H295c2.1,0,3.8,1.7,3.8,3.8v182.9
				C298.9,206.6,297.2,208.3,295,208.3z M164.9,17.9c-2,0-3.7,1.7-3.7,3.7v182.9c0,2,1.7,3.7,3.7,3.7H295c2,0,3.7-1.7,3.7-3.7V21.5
				c0-2-1.7-3.7-3.7-3.7H164.9z"/>
		</g>
		<g>
			
				<rect x="184.8" y="37.2" transform="matrix(-1 -1.224647e-16 1.224647e-16 -1 462.3705 135.1143)" fill="#E6E6E6" width="92.9" height="60.8"/>
			
				<rect x="181.9" y="37.2" transform="matrix(-1 -1.224647e-16 1.224647e-16 -1 458.2129 135.1143)" fill="#F0F0F0" width="94.4" height="60.8"/>
			
				<rect x="184.8" y="98" transform="matrix(-1 -1.224647e-16 1.224647e-16 -1 462.3705 207.8637)" fill="#E6E6E6" width="92.9" height="11.9"/>
			
				<rect x="177.2" y="98" transform="matrix(-1 -1.224647e-16 1.224647e-16 -1 448.7719 207.8637)" fill="#F0F0F0" width="94.4" height="11.9"/>
			
				<rect x="202.7" y="24.3" transform="matrix(-1.836970e-16 1 -1 -1.836970e-16 296.6637 -161.5493)" fill="#FAFAFA" width="52.9" height="86.4"/>
			<polygon fill="#FFFFFF" points="252.8,94 241.8,41.1 224.6,41.1 235.6,94 			"/>
			<path fill="#F0F0F0" d="M270.5,90c0.2,0,0.3-0.1,0.3-0.3V43.7c0-0.2-0.1-0.3-0.3-0.3s-0.3,0.1-0.3,0.3v46.1
				C270.2,89.9,270.3,90,270.5,90z"/>
			<polygon fill="#FFFFFF" points="231.9,94 220.9,41.1 214.1,41.1 225.2,94 			"/>
			
				<rect x="159.7" y="67.3" transform="matrix(-1.836970e-16 1 -1 -1.836970e-16 253.6946 -118.5802)" fill="#E6E6E6" width="52.9" height="0.5"/>
			<polygon opacity="0.6" fill="#EBEBEB" points="181,47.1 273.8,47.1 274.2,42.7 181.3,42.7 			"/>
			<polygon opacity="0.6" fill="#EBEBEB" points="181,54.4 273.8,54.4 274.2,49.9 181.3,49.9 			"/>
			<polygon opacity="0.6" fill="#EBEBEB" points="181,61.7 273.8,61.7 274.2,57.2 181.3,57.2 			"/>
			<polygon opacity="0.6" fill="#EBEBEB" points="181,68.9 273.8,68.9 274.2,64.5 181.3,64.5 			"/>
			<polygon opacity="0.6" fill="#EBEBEB" points="181,76.2 273.8,76.2 274.2,71.8 181.3,71.8 			"/>
			<polygon opacity="0.6" fill="#EBEBEB" points="181,83.5 273.8,83.5 274.2,79.1 181.3,79.1 			"/>
		</g>
		<g>
			<g>
				<g>
					<rect x="244.8" y="194.2" fill="#E6E6E6" width="19.5" height="3.8"/>
					
						<rect x="208.1" y="150" transform="matrix(-1 -1.224647e-16 1.224647e-16 -1 419.7634 388.4369)" fill="#E6E6E6" width="3.6" height="88.3"/>
					
						<rect x="195.6" y="194.2" transform="matrix(-1 -1.224647e-16 1.224647e-16 -1 440.4464 392.1619)" fill="#F5F5F5" width="49.2" height="3.8"/>
					<rect x="244.8" y="215.2" fill="#E6E6E6" width="19.5" height="3.8"/>
					
						<rect x="195.6" y="215.2" transform="matrix(-1 -1.224647e-16 1.224647e-16 -1 440.4464 434.1754)" fill="#F5F5F5" width="49.2" height="3.8"/>
					<rect x="244.8" y="152.1" fill="#E6E6E6" width="19.5" height="3.8"/>
					
						<rect x="195.6" y="152.1" transform="matrix(-1 -1.224647e-16 1.224647e-16 -1 440.4464 308.1347)" fill="#F5F5F5" width="49.2" height="3.8"/>
					<rect x="244.8" y="173.2" fill="#E6E6E6" width="19.5" height="3.8"/>
					
						<rect x="195.6" y="173.2" transform="matrix(-1 -1.224647e-16 1.224647e-16 -1 440.4464 350.1483)" fill="#F5F5F5" width="49.2" height="3.8"/>
				</g>
			</g>
			
				<rect x="257.3" y="150" transform="matrix(-1 -1.224647e-16 1.224647e-16 -1 518.1201 388.4369)" fill="#E6E6E6" width="3.6" height="88.3"/>
			
				<rect x="241.2" y="150" transform="matrix(-1 -1.224647e-16 1.224647e-16 -1 486.03 388.4369)" fill="#F5F5F5" width="3.6" height="88.3"/>
			
				<rect x="195.6" y="150" transform="matrix(-1 -1.224647e-16 1.224647e-16 -1 394.8627 388.4369)" fill="#F5F5F5" width="3.6" height="88.3"/>
		</g>
		<g>
			<g>
				
					<rect x="33.6" y="167" transform="matrix(-1 -1.224647e-16 1.224647e-16 -1 103.9048 405.4048)" fill="#E6E6E6" width="36.8" height="71.4"/>
				<polygon fill="#FAFAFA" points="43.4,238.4 33.6,238.4 33.6,228.5 53.7,228.5 				"/>
				
					<rect x="133.9" y="167" transform="matrix(-1 -1.224647e-16 1.224647e-16 -1 304.5045 405.4048)" fill="#E6E6E6" width="36.8" height="71.4"/>
				
					<rect x="33.6" y="167" transform="matrix(-1 -1.224647e-16 1.224647e-16 -1 175.9913 402.0135)" fill="#FAFAFA" width="108.9" height="68"/>
				<polygon fill="#FAFAFA" points="132.6,238.4 142.4,238.4 142.4,228.5 122.3,228.5 				"/>
				
					<rect x="41.2" y="192.3" transform="matrix(-1 -1.224647e-16 1.224647e-16 -1 175.9913 401.7088)" fill="#F0F0F0" width="93.6" height="17"/>
				
					<rect x="41.2" y="213" transform="matrix(-1 -1.224647e-16 1.224647e-16 -1 175.9913 443.0065)" fill="#F0F0F0" width="93.6" height="17"/>
				<path fill="#FAFAFA" d="M59,194.2h58c1.7,0,3.1-1.4,3.1-3.1v-0.2H55.9v0.2C55.9,192.8,57.3,194.2,59,194.2z"/>
				
					<rect x="41.2" y="171.7" transform="matrix(-1 -1.224647e-16 1.224647e-16 -1 175.9913 360.411)" fill="#F0F0F0" width="93.6" height="17"/>
				<path fill="#FAFAFA" d="M59,173.5h58c1.7,0,3.1-1.4,3.1-3.1v-0.2H55.9v0.2C55.9,172.1,57.3,173.5,59,173.5z"/>
				<path fill="#FAFAFA" d="M59,214.8h58c1.7,0,3.1-1.4,3.1-3.1v-0.2H55.9v0.2C55.9,213.4,57.3,214.8,59,214.8z"/>
			</g>
		</g>
		<g>
			
				<rect x="39.4" y="37.2" transform="matrix(-1 -1.224647e-16 1.224647e-16 -1 171.7051 135.1143)" fill="#E6E6E6" width="92.9" height="60.8"/>
			
				<rect x="36.6" y="37.2" transform="matrix(-1 -1.224647e-16 1.224647e-16 -1 167.5476 135.1143)" fill="#F0F0F0" width="94.4" height="60.8"/>
			
				<rect x="39.4" y="98" transform="matrix(-1 -1.224647e-16 1.224647e-16 -1 171.7051 207.8637)" fill="#E6E6E6" width="92.9" height="11.9"/>
			
				<rect x="31.9" y="98" transform="matrix(-1 -1.224647e-16 1.224647e-16 -1 158.1064 207.8637)" fill="#F0F0F0" width="94.4" height="11.9"/>
			
				<rect x="57.3" y="24.3" transform="matrix(-1.836970e-16 1 -1 -1.836970e-16 151.331 -16.2166)" fill="#FAFAFA" width="52.9" height="86.4"/>
			<polygon fill="#FFFFFF" points="107.5,94 96.5,41.1 79.2,41.1 90.3,94 			"/>
			<path fill="#F0F0F0" d="M125.2,90c0.2,0,0.3-0.1,0.3-0.3V43.7c0-0.2-0.1-0.3-0.3-0.3c-0.2,0-0.3,0.1-0.3,0.3v46.1
				C124.9,89.9,125,90,125.2,90z"/>
			<polygon fill="#FFFFFF" points="86.6,94 75.5,41.1 68.8,41.1 79.9,94 			"/>
			
				<rect x="14.4" y="67.3" transform="matrix(-1.836970e-16 1 -1 -1.836970e-16 108.3618 26.7525)" fill="#E6E6E6" width="52.9" height="0.5"/>
			<polygon opacity="0.6" fill="#EBEBEB" points="35.6,47.1 128.5,47.1 128.9,42.7 36,42.7 			"/>
			<polygon opacity="0.6" fill="#EBEBEB" points="35.6,49.6 128.5,49.6 128.9,45.2 36,45.2 			"/>
			<polygon opacity="0.6" fill="#EBEBEB" points="35.6,52.1 128.5,52.1 128.9,47.7 36,47.7 			"/>
			<polygon opacity="0.6" fill="#EBEBEB" points="35.6,54.6 128.5,54.6 128.9,50.2 36,50.2 			"/>
			<polygon opacity="0.6" fill="#EBEBEB" points="35.6,57.1 128.5,57.1 128.9,52.7 36,52.7 			"/>
			<polygon opacity="0.6" fill="#EBEBEB" points="35.6,59.6 128.5,59.6 128.9,55.2 36,55.2 			"/>
		</g>
		<g>
			
				<rect x="54.2" y="129.1" transform="matrix(-1 -1.224647e-16 1.224647e-16 -1 111.632 293.885)" fill="#F5F5F5" width="3.2" height="35.8"/>
			
				<rect x="54.6" y="129" transform="matrix(-1 -1.224647e-16 1.224647e-16 -1 110.1553 293.8354)" fill="#FAFAFA" width="0.9" height="35.8"/>
			
				<rect x="55.9" y="129" transform="matrix(-1 -1.224647e-16 1.224647e-16 -1 112.1771 293.8355)" fill="#FAFAFA" width="0.4" height="35.8"/>
			<path fill="#F0F0F0" d="M43.9,167h23.8v0c0-1.7-1.3-3-3-3H46.9C45.3,164,43.9,165.4,43.9,167L43.9,167z"/>
			<path fill="#F0F0F0" d="M50,151.3L50,151.3c0.5,0,0.9-0.4,0.9-0.9v-23.5c0-0.5-0.4-0.9-0.9-0.9l0,0c-0.5,0-0.9,0.4-0.9,0.9v23.5
				C49.1,150.8,49.5,151.3,50,151.3z"/>
			<polygon fill="#E0E0E0" points="41.4,137.6 70.2,137.6 66.9,117.5 44.8,117.5 			"/>
		</g>
		<ellipse id="_x3C_Path_x3E__130_" fill="#F5F5F5" cx="158" cy="261.2" rx="130.7" ry="7.6"/>
		<g>
			<g>
				
					<rect x="59.4" y="117" transform="matrix(0.9974 -7.183588e-02 7.183588e-02 0.9974 -8.7014 4.6132)" fill="#407BFF" width="0.7" height="12.5"/>
				
					<rect x="60.5" y="135.9" transform="matrix(0.9974 -7.185701e-02 7.185701e-02 0.9974 -9.7769 4.7308)" fill="#407BFF" width="0.7" height="4.7"/>
				<path fill="#407BFF" d="M217.1,193.1H72.8c-3.3,0-6.1-2.7-6.4-5.9l-7.1-98.5c-0.2-3.3,2.2-5.9,5.5-5.9h144.3
					c3.3,0,6.1,2.7,6.4,5.9l7.1,98.5C222.9,190.4,220.4,193.1,217.1,193.1z"/>
				<g>
					<g>
						<path fill="#407BFF" d="M217.7,193.1H73.3c-3.3,0-6.1-2.7-6.4-5.9l-7.1-98.5c-0.2-3.3,2.2-5.9,5.5-5.9h144.3
							c3.3,0,6.1,2.7,6.4,5.9l7.1,98.5C223.4,190.4,220.9,193.1,217.7,193.1z"/>
						<path opacity="0.5" fill="#FFFFFF" d="M217.7,193.1H73.3c-3.3,0-6.1-2.7-6.4-5.9l-7.1-98.5c-0.2-3.3,2.2-5.9,5.5-5.9h144.3
							c3.3,0,6.1,2.7,6.4,5.9l7.1,98.5C223.4,190.4,220.9,193.1,217.7,193.1z"/>
					</g>
					<path fill="#407BFF" d="M209.9,85.7H65.6c-0.2,0-0.3,0-0.5,0c-3.7,0.3-2.9,5.9,0.8,5.9h144.6c3.7,0,3.7-5.6-0.1-5.9
						C210.3,85.7,210.1,85.7,209.9,85.7z"/>
					<path fill="#FAFAFA" d="M69.4,88.6c0.1,0.8-0.5,1.4-1.3,1.4s-1.4-0.6-1.5-1.4c-0.1-0.8,0.5-1.4,1.3-1.4S69.3,87.9,69.4,88.6z"
						/>
					<path fill="#FAFAFA" d="M74,88.6c0.1,0.8-0.5,1.4-1.3,1.4c-0.8,0-1.4-0.6-1.5-1.4c-0.1-0.8,0.5-1.4,1.3-1.4S73.9,87.9,74,88.6z
						"/>
					<path fill="#FAFAFA" d="M78.6,88.6c0.1,0.8-0.5,1.4-1.3,1.4c-0.8,0-1.4-0.6-1.5-1.4c-0.1-0.8,0.5-1.4,1.3-1.4
						C77.9,87.3,78.6,87.9,78.6,88.6z"/>
				</g>
				<path fill="#FFFFFF" d="M213.8,183.2H75.7c-1.2,0-2.2-1-2.3-2.2l-5.8-81c-0.1-1.2,0.8-2.2,2-2.2h138.1c1.2,0,2.2,1,2.3,2.2
					l5.8,81C215.9,182.3,215,183.2,213.8,183.2z"/>
			</g>
			<g>
				<g>
					<g>
						<g>
							<polygon fill="#FFFFFF" points="155.7,152.4 153.4,121.2 146.6,117.1 127.9,117.1 130.4,152.4 							"/>
							<path fill="#407BFF" d="M155.7,152.7h-25.3c-0.2,0-0.3-0.1-0.3-0.3l-2.5-35.3c0-0.1,0-0.2,0.1-0.2c0.1-0.1,0.1-0.1,0.2-0.1
								h18.7c0.1,0,0.1,0,0.2,0l6.8,4.1c0.1,0.1,0.1,0.2,0.2,0.3l2.2,31.2c0,0.1,0,0.2-0.1,0.2C155.8,152.7,155.8,152.7,155.7,152.7
								z M130.7,152.1h24.6l-2.2-30.7l-6.6-4h-18.3L130.7,152.1z"/>
						</g>
						<g>
							<polygon fill="#EBEBEB" points="153.4,121.2 146.6,117.1 149.1,122.5 							"/>
							<path fill="#407BFF" d="M149.1,122.8c-0.1,0-0.2-0.1-0.3-0.2l-2.5-5.4c-0.1-0.1,0-0.3,0.1-0.4c0.1-0.1,0.3-0.1,0.4,0l6.8,4.1
								c0.1,0.1,0.2,0.2,0.2,0.3c0,0.1-0.1,0.2-0.2,0.3L149.1,122.8C149.2,122.8,149.1,122.8,149.1,122.8z M147.3,117.9l1.9,4.2
								l3.3-1L147.3,117.9z"/>
						</g>
					</g>
					<g>
						<path fill="#407BFF" d="M138.4,133c0.1,0.8-0.5,1.4-1.3,1.4s-1.5-0.6-1.5-1.4s0.5-1.4,1.3-1.4S138.4,132.2,138.4,133z"/>
						<path fill="#407BFF" d="M147.7,133c0.1,0.8-0.5,1.4-1.3,1.4s-1.5-0.6-1.5-1.4s0.5-1.4,1.3-1.4S147.6,132.2,147.7,133z"/>
						<path fill="#407BFF" d="M150.3,142.2c-0.2,0-0.3-0.1-0.3-0.3c-0.2-2.3-3.8-4.2-8-4.2c-2.8,0-5.4,0.8-6.6,2.2
							c-0.6,0.6-0.8,1.2-0.8,1.9c0,0.2-0.1,0.3-0.3,0.3c-0.2,0-0.3-0.1-0.3-0.3c-0.1-0.9,0.3-1.7,0.9-2.4c1.4-1.5,4.1-2.4,7.1-2.4
							c4.7,0,8.5,2.1,8.7,4.8C150.6,142.1,150.5,142.2,150.3,142.2C150.3,142.2,150.3,142.2,150.3,142.2z"/>
					</g>
					<path fill="#407BFF" d="M133.2,130.1c-0.1,0-0.2,0-0.2-0.1c-0.1-0.1-0.1-0.3,0-0.5l1.4-1.5c0.1-0.1,0.3-0.1,0.5,0
						c0.1,0.1,0.1,0.3,0,0.5l-1.4,1.5C133.3,130.1,133.3,130.1,133.2,130.1z"/>
					<path fill="#407BFF" d="M149.6,130.1c-0.1,0-0.2,0-0.2-0.1l-1.7-1.5c-0.1-0.1-0.1-0.3,0-0.5c0.1-0.1,0.3-0.1,0.5,0l1.7,1.5
						c0.1,0.1,0.1,0.3,0,0.5C149.8,130.1,149.7,130.1,149.6,130.1z"/>
				</g>
				<g>
					<path fill="#407BFF" d="M125.8,159.4h1.5l2.2,2.9l-0.2-2.9h1.5l0.4,5.3h-1.5l-2.2-2.9l0.2,2.9h-1.5L125.8,159.4z"/>
					<path fill="#407BFF" d="M131.9,162c-0.1-0.9,0.1-1.5,0.6-2c0.4-0.5,1.1-0.7,2-0.7c0.9,0,1.6,0.2,2.1,0.7c0.5,0.5,0.8,1.1,0.9,2
						c0,0.6,0,1.1-0.2,1.5c-0.2,0.4-0.5,0.7-0.8,0.9c-0.4,0.2-0.9,0.3-1.4,0.3c-0.6,0-1.1-0.1-1.5-0.3c-0.4-0.2-0.7-0.5-1-0.9
						C132.1,163.1,132,162.6,131.9,162z M133.6,162c0,0.5,0.2,0.9,0.4,1.1c0.2,0.2,0.5,0.3,0.8,0.3c0.4,0,0.6-0.1,0.8-0.3
						c0.2-0.2,0.2-0.6,0.2-1.2c0-0.5-0.2-0.9-0.4-1.1c-0.2-0.2-0.5-0.3-0.8-0.3c-0.3,0-0.6,0.1-0.8,0.3
						C133.6,161.1,133.5,161.5,133.6,162z"/>
					<path fill="#407BFF" d="M140.6,159.4h2.4c0.5,0,0.9,0.1,1.2,0.2c0.3,0.1,0.6,0.3,0.8,0.6c0.2,0.2,0.4,0.5,0.5,0.8
						c0.1,0.3,0.2,0.7,0.2,1c0,0.6,0,1-0.1,1.3c-0.1,0.3-0.3,0.6-0.5,0.8c-0.2,0.2-0.4,0.3-0.7,0.4c-0.4,0.1-0.7,0.1-1,0.1H141
						L140.6,159.4z M142.3,160.6l0.2,2.9h0.4c0.3,0,0.6,0,0.7-0.1c0.1-0.1,0.2-0.2,0.3-0.4c0.1-0.2,0.1-0.5,0.1-0.9
						c0-0.6-0.2-0.9-0.4-1.1c-0.2-0.2-0.5-0.3-0.9-0.3H142.3z"/>
					<path fill="#407BFF" d="M149.5,163.8h-1.9l-0.2,0.9h-1.7l1.6-5.3h1.8l2.4,5.3h-1.7L149.5,163.8z M149.1,162.6l-0.7-1.9
						l-0.4,1.9H149.1z"/>
					<path fill="#407BFF" d="M150.8,159.4h5l0.1,1.3h-1.7l0.3,4h-1.6l-0.3-4h-1.7L150.8,159.4z"/>
					<path fill="#407BFF" d="M159.6,163.8h-1.9l-0.2,0.9h-1.7l1.6-5.3h1.8l2.4,5.3h-1.7L159.6,163.8z M159.2,162.6l-0.7-1.9
						l-0.4,1.9H159.2z"/>
				</g>
			</g>
		</g>
		<g>
			<path fill="#FFB573" d="M227.9,97.3c0.6-0.3,1.3-0.7,2-1.1c0.7-0.4,1.3-0.8,2-1.2c1.3-0.8,2.7-1.6,3.9-2.5
				c2.5-1.8,4.9-3.7,7.1-5.8c0.3-0.3,0.5-0.5,0.8-0.8l0.4-0.4l0.2-0.2l0.1-0.1c0,0,0,0,0,0l0,0c-0.1,0.2,0,0.1,0,0
				c0-0.2,0.1-0.4,0.1-0.7c0-1.2-0.2-2.8-0.5-4.3c-0.6-3-1.5-6.1-2.4-9.2l2.6-1.1c1.6,2.9,3,5.9,4.1,9.2c0.5,1.6,1,3.3,1.2,5.3
				c0,0.5,0,1.1-0.1,1.7c-0.1,0.6-0.3,1.4-0.8,2.2l-0.1,0.2l-0.1,0.1l-0.1,0.1l-0.2,0.3l-0.4,0.5c-0.3,0.3-0.5,0.7-0.8,1
				c-2.3,2.6-4.9,4.9-7.7,6.8c-1.4,1-2.8,2-4.2,2.8c-0.7,0.4-1.5,0.9-2.2,1.3c-0.8,0.4-1.5,0.8-2.3,1.2L227.9,97.3z"/>
			<path fill="#407BFF" d="M221.9,255.8c0.5,0,1.1-0.1,1.5-0.2c0.1,0,0.1-0.1,0.1-0.1c0-0.1,0-0.1-0.1-0.1c-0.2-0.1-1.9-1.2-2.6-0.9
				c-0.1,0-0.2,0.2-0.3,0.4c0,0.3,0,0.5,0.2,0.7C221.1,255.7,221.5,255.8,221.9,255.8z M223,255.4c-1,0.2-1.7,0.2-2-0.1
				c-0.1-0.1-0.2-0.3-0.1-0.5c0-0.1,0.1-0.1,0.1-0.2C221.3,254.5,222.3,254.9,223,255.4z"/>
			<path fill="#407BFF" d="M223.4,255.6C223.4,255.6,223.4,255.6,223.4,255.6c0.1,0,0.1-0.1,0.1-0.1c0-0.1,0-1.7-0.6-2.2
				c-0.2-0.1-0.4-0.2-0.6-0.2c-0.3,0-0.4,0.3-0.4,0.4C221.7,254,222.7,255.2,223.4,255.6C223.3,255.6,223.3,255.6,223.4,255.6z
				 M222.4,253.3c0.1,0,0.2,0,0.3,0.1c0.4,0.3,0.5,1.2,0.5,1.8c-0.5-0.4-1.2-1.3-1.1-1.7C222.1,253.4,222.2,253.3,222.4,253.3
				C222.4,253.3,222.4,253.3,222.4,253.3z"/>
			<path fill="#FFB573" d="M222.9,80.4c-0.7,3.4-2,10.1,0.3,12.4c0,0-0.9,3.4-7.1,3.4c-6.8,0-3.3-3.4-3.3-3.4c3.7-0.9,3.6-3.7,3-6.3
				L222.9,80.4z"/>
			<path fill="#263238" d="M211.4,94.2c-1.1,0.1-0.2-2.6,0.3-2.9c1-0.7,14.1-1.6,14,0c-0.1,0.7-0.4,2-0.9,2.5
				C224.2,94.1,220.8,92.8,211.4,94.2z"/>
			<path fill="#263238" d="M213.6,93.2c-0.9,0.3-0.8-2.5-0.5-2.9c0.7-0.8,11.2-3.5,11.5-2c0.1,0.7,0.2,2-0.2,2.5
				C224.1,91.4,221,90.6,213.6,93.2z"/>
			<path fill="#263238" d="M209.6,74.4c-0.1,0-0.2,0-0.2-0.1c-0.8-0.9-1.7-0.8-1.7-0.8c-0.1,0-0.3-0.1-0.3-0.2
				c0-0.1,0.1-0.3,0.2-0.3c0.1,0,1.3-0.1,2.2,1c0.1,0.1,0.1,0.3,0,0.4C209.7,74.4,209.7,74.4,209.6,74.4z"/>
			<path fill="#FF5652" d="M208.3,77.7c0,0-0.6,2-1.3,3.1c0.7,0.5,1.6,0.1,1.6,0.1L208.3,77.7z"/>
			<path fill="#263238" d="M208.7,76.9c0,0.5-0.2,0.8-0.5,0.9c-0.3,0-0.6-0.3-0.6-0.8c0-0.5,0.2-0.8,0.5-0.9
				C208.3,76.1,208.6,76.4,208.7,76.9z"/>
			<path fill="#263238" d="M208.2,76.1l-1.1-0.2C207.1,75.9,207.7,76.7,208.2,76.1z"/>
			<polygon fill="#FFB573" points="229.9,255.4 224.3,255.4 224.7,242.4 230.4,242.4 			"/>
			<path fill="#263238" d="M223.8,254.8h6.3c0.2,0,0.4,0.2,0.5,0.4l0.7,5c0.1,0.5-0.4,1-0.9,1c-2.2,0-3.3-0.2-6.1-0.2
				c-1.7,0-4.2,0.2-6.6,0.2c-2.3,0-2.5-2.3-1.5-2.6c4.4-1,5.1-2.3,6.6-3.5C223.1,254.9,223.5,254.8,223.8,254.8z"/>
			<g opacity="0.2">
				<polygon points="230.4,242.4 224.7,242.4 224.5,249.1 230.1,249.1 				"/>
			</g>
			<path fill="#FFB573" d="M207.5,100.7c-3.5-1.4-6.8-2.9-10.1-4.6c-3.3-1.7-6.6-3.5-9.7-5.9c-0.8-0.6-1.6-1.3-2.3-2.1
				c-0.2-0.2-0.4-0.4-0.6-0.6c-0.2-0.2-0.3-0.4-0.6-0.8c-0.5-0.7-0.8-1.5-0.9-2.4c-0.1-0.9,0.1-1.8,0.3-2.4c0.3-0.7,0.6-1.3,0.9-1.8
				c0.7-1,1.5-1.7,2.3-2.4c1.6-1.3,3.2-2.3,4.9-3.1c0.8-0.4,1.7-0.8,2.6-1.2c0.9-0.4,1.7-0.7,2.6-1l1.2,2.6c-2.9,1.9-6,3.9-8.2,6.2
				c-0.5,0.6-1,1.2-1.3,1.7c-0.3,0.5-0.3,0.9-0.3,0.9c0,0,0,0,0.1,0.1l0.3,0.3c0.1,0.1,0.2,0.2,0.4,0.4c0.5,0.5,1.1,1,1.8,1.5
				c1.3,1,2.8,1.8,4.3,2.7c1.5,0.8,3.1,1.7,4.7,2.4c3.2,1.5,6.5,3,9.7,4.3L207.5,100.7z"/>
			<path fill="#FFB573" d="M199.8,73.1l0.9-2l-4.2-1.5c0,0-1.3,4,0.3,5.8l0,0C198.1,75.2,199.2,74.3,199.8,73.1z"/>
			<polygon fill="#FFB573" points="200.7,66.7 197.3,65.7 196.5,69.6 200.7,71.1 			"/>
			<path fill="#FFB573" d="M244.5,71.3l0.5-4.7l-4.4,1c0,0-0.1,4.4,2.2,5.1L244.5,71.3z"/>
			<polygon fill="#FFB573" points="242.9,63.2 240,64.5 240.6,67.6 245,66.5 			"/>
			<path fill="#FFB573" d="M223.7,73.8c0.2,5.6,0.4,8-2.1,11.1c-3.8,4.7-10.7,3.7-12.6-1.7c-1.7-4.9-1.7-13.2,3.5-16
				C217.7,64.6,223.5,68.2,223.7,73.8z"/>
			<g>
				<path fill="#263238" d="M221.3,84.9c5.5-2.4,9.1-7.4,7.6-15.2c-1.5-7.5-6.5-8.2-8.6-6.7c-2.1,1.6-7.3-0.8-10.4,1.9
					c-5.4,4.6-0.3,9.5,2.4,12.4C213.8,80.5,215.9,87.3,221.3,84.9z"/>
				<path fill="#407BFF" d="M219,68.4c1.9,2.7,5.4,3.4,7.9,1.7c2.5-1.8,3.1-5.3,1.2-8c-1.9-2.7-5.4-3.4-7.9-1.7
					C217.7,62.1,217.2,65.7,219,68.4z"/>
				<path fill="#263238" d="M220.4,63.6c-0.8-4.5,3.5-8,9.2-6.3c5.7,1.7,2.7,6.7,1.5,10.8c-1.2,4,1.9,7.9,3.2,4.8
					c1.3-3.1-0.9-4-0.9-4s6.1,1.6,0.4,8.4c-5.6,6.8-10.7-0.7-9.4-5.2C225.7,68.5,221.2,67.8,220.4,63.6z"/>
				<path fill="#263238" d="M214.7,65.3c-2.6-1.4-7-2.5-9.5,1.8c-1.2,2-0.7,4.7-0.7,4.7l7.7,0.5L214.7,65.3z"/>
				<path fill="#263238" d="M203.6,70.4C203.6,70.4,203.6,70.4,203.6,70.4c-0.1,0-0.2-0.1-0.2-0.2c0-0.1,0.2-2.8,1.8-4.5
					c4-4.1,8.6-0.7,9.9,0.4c0.1,0.1,0.1,0.2,0,0.2c-0.1,0.1-0.2,0.1-0.2,0c-1.3-1.1-5.7-4.4-9.5-0.5c-1.5,1.6-1.7,4.3-1.7,4.3
					C203.7,70.3,203.7,70.4,203.6,70.4z"/>
			</g>
			<path fill="#FFB573" d="M213.2,77.1c0,1.1-0.5,2.2-1.1,2.9c-0.9,1.1-2,0.6-2.2-0.7c-0.2-1.1,0-3,1.2-3.6
				C212.1,75,213.2,75.8,213.2,77.1z"/>
			<g>
				<path fill="#263238" d="M212,128.3c0,0,0.4,39.2,3.8,61c2.7,17.6,7.8,58.4,7.8,58.4h7.7c0,0,0.8-39.4-0.6-56.8
					c-3.5-44.1,5.6-52.4-1.8-62.6H212z"/>
				<path opacity="0.1" fill="#FFFFFF" d="M212,128.3c0,0,0.4,39.2,3.8,61c2.7,17.6,7.8,58.4,7.8,58.4h7.7c0,0,0.8-39.4-0.6-56.8
					c-3.5-44.1,5.6-52.4-1.8-62.6H212z"/>
			</g>
			<path opacity="0.3" d="M216,146.1c2.7,11.8,0.5,30.5-0.9,38.7c-1.6-12.5-2.4-28.6-2.7-40.4C213.7,142.1,215,141.9,216,146.1z"/>
			<polygon fill="#407BFF" points="222.5,247.9 232.3,247.9 232.8,244.5 222.4,244.2 			"/>
			<g>
				<path fill="#407BFF" d="M225.3,95.3c0.9-1.8,5.9-3,8.6-3l2,9c0,0-5.4,8-7.6,7.2C225.6,107.4,223.3,99.2,225.3,95.3z"/>
				<path opacity="0.4" d="M225.3,95.3c0.9-1.8,5.9-3,8.6-3l2,9c0,0-5.4,8-7.6,7.2C225.6,107.4,223.3,99.2,225.3,95.3z"/>
			</g>
			<path fill="#407BFF" d="M219.6,245.7c0,0,0-0.1,0-0.1c0-0.1-0.1-0.1-0.1-0.1c-0.3,0-2.8,0.4-3.1,1.2c-0.1,0.1-0.1,0.3,0,0.4
				c0.1,0.2,0.3,0.4,0.6,0.4C217.7,247.6,218.9,246.4,219.6,245.7C219.6,245.8,219.6,245.8,219.6,245.7z M216.6,246.8
				c0.2-0.4,1.5-0.7,2.5-0.9c-0.9,0.9-1.7,1.4-2.1,1.4c-0.2,0-0.3-0.1-0.4-0.3C216.5,246.9,216.5,246.9,216.6,246.8
				C216.6,246.8,216.6,246.8,216.6,246.8z"/>
			<path fill="#407BFF" d="M219.6,245.7C219.6,245.7,219.6,245.7,219.6,245.7c0-0.1,0-0.1,0-0.2c0,0-1-1.2-2-1.3
				c-0.3,0-0.5,0.1-0.7,0.2c-0.3,0.2-0.3,0.5-0.2,0.6C217,245.8,218.8,246,219.6,245.7C219.5,245.8,219.6,245.8,219.6,245.7z
				 M216.9,244.9c0,0,0.1-0.1,0.1-0.1c0.2-0.1,0.3-0.2,0.5-0.2c0.6,0,1.3,0.7,1.6,1c-0.8,0.1-2.1-0.2-2.3-0.5
				C216.9,245,216.9,245,216.9,244.9z"/>
			<polygon fill="#FFB573" points="225.5,243.4 220.3,245.6 218,240.9 215,234.6 214.6,233.9 219.8,231.6 220.2,232.4 223.1,238.5 
							"/>
			<polygon opacity="0.2" points="223.1,238.5 218,240.9 215,234.6 220.2,232.4 			"/>
			<g>
				<path fill="#263238" d="M205.9,128.3c0,0-16.5,41-12,60.3c4,17.5,21.9,50.5,21.9,50.5l6.9-3.5c0,0-11-39.9-12.2-48.6
					c-2.3-16.9,12.7-40.7,12.7-58.8L205.9,128.3z"/>
				<path opacity="0.1" fill="#FFFFFF" d="M205.9,128.3c0,0-16.5,41-12,60.3c4,17.5,21.9,50.5,21.9,50.5l6.9-3.5
					c0,0-11-39.9-12.2-48.6c-2.3-16.9,12.7-40.7,12.7-58.8L205.9,128.3z"/>
			</g>
			<path fill="#263238" d="M219.4,244.9l5.1-3.7c0.2-0.1,0.4-0.1,0.6,0l3.5,3.6c0.4,0.4,0.3,1-0.1,1.3c-1.8,1.3-2.7,1.8-5,3.4
				c-1.4,1-4.2,3.2-6.1,4.6c-1.9,1.4-3.4-0.4-2.7-1.2c3-3.4,3.7-5.5,4.1-7.3C218.9,245.4,219.1,245.1,219.4,244.9z"/>
			<polygon fill="#407BFF" points="215.3,240.6 224.3,236.5 223.1,232.9 213.6,237.3 			"/>
			<g>
				<path fill="#407BFF" d="M210.3,94.8c-0.7-1.9-7.2-4-10.4-4.7l-1.4,10.6c0,0,5.3,7.6,7.6,7C208.8,106.9,211.9,98.9,210.3,94.8z"
					/>
				<path opacity="0.4" d="M210.3,94.8c-0.7-1.9-7.2-4-10.4-4.7l-1.4,10.6c0,0,5.3,7.6,7.6,7C208.8,106.9,211.9,98.9,210.3,94.8z"/>
			</g>
			<g>
				<path fill="#407BFF" d="M203.2,94.3c0,0-2.7,0.9,2.7,34.1c9.1,0,18.5,0,22.9,0c-0.4-9.3-0.4-15.1,4.1-34.2c0,0-4.8-1-9.7-1.3
					c-3.9-0.2-7-0.3-10.4,0C208.3,93.2,203.2,94.3,203.2,94.3z"/>
				<path opacity="0.4" d="M203.2,94.3c0,0-2.7,0.9,2.7,34.1c9.1,0,18.5,0,22.9,0c-0.4-9.3-0.4-15.1,4.1-34.2c0,0-4.8-1-9.7-1.3
					c-3.9-0.2-7-0.3-10.4,0C208.3,93.2,203.2,94.3,203.2,94.3z"/>
			</g>
			<g>
				<path fill="#407BFF" d="M229.2,127l1,2.1c0.1,0.2-0.1,0.3-0.4,0.3h-24c-0.2,0-0.4-0.1-0.4-0.2l-0.2-2.1c0-0.1,0.2-0.3,0.4-0.3
					h23.2C229,126.8,229.1,126.9,229.2,127z"/>
				<path opacity="0.3" fill="#FFFFFF" d="M229.2,127l1,2.1c0.1,0.2-0.1,0.3-0.4,0.3h-24c-0.2,0-0.4-0.1-0.4-0.2l-0.2-2.1
					c0-0.1,0.2-0.3,0.4-0.3h23.2C229,126.8,229.1,126.9,229.2,127z"/>
			</g>
			<path fill="#263238" d="M226.1,129.6h0.6c0.1,0,0.2-0.1,0.2-0.1l-0.3-2.7c0-0.1-0.1-0.1-0.2-0.1h-0.6c-0.1,0-0.2,0.1-0.2,0.1
				l0.3,2.7C225.8,129.5,225.9,129.6,226.1,129.6z"/>
			<path fill="#263238" d="M211,129.6h0.6c0.1,0,0.2-0.1,0.2-0.1l-0.3-2.7c0-0.1-0.1-0.1-0.2-0.1h-0.6c-0.1,0-0.2,0.1-0.2,0.1
				l0.3,2.7C210.8,129.5,210.9,129.6,211,129.6z"/>
		</g>
	</g>
</g>
</svg>
